<?xml version="1.0" standalone="no"?>
<svg xmlns="http://www.w3.org/2000/svg" xmlns:xlink="http://www.w3.org/1999/xlink" height="1800px" width="2880px">
  <defs>
    <pattern id="doodad" width="40" height="40" viewBox="0 0 40 40" patternUnits="userSpaceOnUse" patternTransform="rotate(135)">
      <rect width="100%" height="100%" fill="#2a4365"/>
      <path d="M-20 16l20-20l20 20l20-20l20 20l20-20l20 20v-12l-20-20l-20 20l-20-20l-20 20l-20-20l-20 20zM-20-24l20-20l20 20l20-20l20 20l20-20l20 20v-12l-20-20l-20 20l-20-20l-20 20l-20-20l-20 20zM-20 56l20-20l20 20l20-20l20 20l20-20l20 20v-12l-20-20l-20 20l-20-20l-20 20l-20-20l-20 20z " fill="#1a202c"/>
      <path d="M-20 30.5l20-20l20 20l20-20l20 20l20-20l20 20v-1l-20-20l-20 20l-20-20l-20 20l-20-20l-20 20zM-20-9.5l20-20l20 20l20-20l20 20l20-20l20 20v-1l-20-20l-20 20l-20-20l-20 20l-20-20l-20 20zM-20 70.5l20-20l20 20l20-20l20 20l20-20l20 20v-1l-20-20l-20 20l-20-20l-20 20l-20-20l-20 20z " fill="#ecc94b"/>
      <path d="M-20 36l20-20l20 20l20-20l20 20l20-20l20 20v-12l-20-20l-20 20l-20-20l-20 20l-20-20l-20 20zM-20-4l20-20l20 20l20-20l20 20l20-20l20 20v-12l-20-20l-20 20l-20-20l-20 20l-20-20l-20 20zM-20 76l20-20l20 20l20-20l20 20l20-20l20 20v-12l-20-20l-20 20l-20-20l-20 20l-20-20l-20 20z " fill="#1a202c"/>
    </pattern>
  </defs>
  <rect fill="url(#doodad)" height="200%" width="200%"/>
</svg>
